<?xml version="1.0" encoding="UTF-8" standalone="no"?>
<!DOCTYPE svg PUBLIC "-//W3C//DTD SVG 1.1//EN"
 "http://www.w3.org/Graphics/SVG/1.1/DTD/svg11.dtd">
<!-- Generated by graphviz version 2.40.1 (20161225.0304)
 -->
<!-- Title: controllers_diagram Pages: 1 -->
<svg width="831pt" height="776pt"
 viewBox="0.00 0.00 830.87 776.00" xmlns="http://www.w3.org/2000/svg" xmlns:xlink="http://www.w3.org/1999/xlink">
<g id="graph0" class="graph" transform="scale(1 1) rotate(0) translate(4 772)">
<title>controllers_diagram</title>
<polygon fill="transparent" stroke="transparent" points="-4,4 -4,-772 826.8691,-772 826.8691,4 -4,4"/>
<!-- _diagram_info -->
<g id="node1" class="node">
<title>_diagram_info</title>
<text text-anchor="start" x="110" y="-177.6" font-family="Times,serif" font-size="13.00" fill="#000000">Controllers diagram</text>
<text text-anchor="start" x="110" y="-164.6" font-family="Times,serif" font-size="13.00" fill="#000000">Date: Sep 22 2019 &#45; 20:38</text>
<text text-anchor="start" x="110" y="-151.6" font-family="Times,serif" font-size="13.00" fill="#000000">Migration version: 20190830102751</text>
<text text-anchor="start" x="110" y="-138.6" font-family="Times,serif" font-size="13.00" fill="#000000">Generated by RailRoady 1.5.3</text>
<text text-anchor="start" x="110" y="-125.6" font-family="Times,serif" font-size="13.00" fill="#000000">http://railroady.prestonlee.com</text>
</g>
<!-- RequestsController -->
<g id="node2" class="node">
<title>RequestsController</title>
<path fill="none" stroke="#000000" d="M267,-221.5C267,-221.5 367.0967,-221.5 367.0967,-221.5 373.0967,-221.5 379.0967,-227.5 379.0967,-233.5 379.0967,-233.5 379.0967,-439.5 379.0967,-439.5 379.0967,-445.5 373.0967,-451.5 367.0967,-451.5 367.0967,-451.5 267,-451.5 267,-451.5 261,-451.5 255,-445.5 255,-439.5 255,-439.5 255,-233.5 255,-233.5 255,-227.5 261,-221.5 267,-221.5"/>
<text text-anchor="middle" x="317.0483" y="-436.3" font-family="Times,serif" font-size="14.00" fill="#000000">RequestsController</text>
<polyline fill="none" stroke="#000000" points="255,-429.5 379.0967,-429.5 "/>
<text text-anchor="start" x="263" y="-414.3" font-family="Times,serif" font-size="14.00" fill="#000000">update</text>
<text text-anchor="start" x="263" y="-400.3" font-family="Times,serif" font-size="14.00" fill="#000000">destroy</text>
<text text-anchor="start" x="263" y="-386.3" font-family="Times,serif" font-size="14.00" fill="#000000">edit</text>
<text text-anchor="start" x="263" y="-372.3" font-family="Times,serif" font-size="14.00" fill="#000000">gets</text>
<text text-anchor="start" x="263" y="-358.3" font-family="Times,serif" font-size="14.00" fill="#000000">index</text>
<text text-anchor="start" x="263" y="-344.3" font-family="Times,serif" font-size="14.00" fill="#000000">made</text>
<text text-anchor="start" x="263" y="-330.3" font-family="Times,serif" font-size="14.00" fill="#000000">new</text>
<text text-anchor="start" x="263" y="-316.3" font-family="Times,serif" font-size="14.00" fill="#000000">show</text>
<text text-anchor="start" x="263" y="-302.3" font-family="Times,serif" font-size="14.00" fill="#000000">create</text>
<polyline fill="none" stroke="#000000" points="255,-295.5 379.0967,-295.5 "/>
<polyline fill="none" stroke="#000000" points="255,-271.5 379.0967,-271.5 "/>
<text text-anchor="start" x="263" y="-256.3" font-family="Times,serif" font-size="14.00" fill="#000000">_layout</text>
<text text-anchor="start" x="263" y="-242.3" font-family="Times,serif" font-size="14.00" fill="#000000">request_params</text>
<text text-anchor="start" x="263" y="-228.3" font-family="Times,serif" font-size="14.00" fill="#000000">set_request</text>
</g>
<!-- ApplicationController -->
<g id="node3" class="node">
<title>ApplicationController</title>
<path fill="none" stroke="#000000" d="M573,-255.5C573,-255.5 746.9316,-255.5 746.9316,-255.5 752.9316,-255.5 758.9316,-261.5 758.9316,-267.5 758.9316,-267.5 758.9316,-359.5 758.9316,-359.5 758.9316,-365.5 752.9316,-371.5 746.9316,-371.5 746.9316,-371.5 573,-371.5 573,-371.5 567,-371.5 561,-365.5 561,-359.5 561,-359.5 561,-267.5 561,-267.5 561,-261.5 567,-255.5 573,-255.5"/>
<text text-anchor="middle" x="659.9658" y="-356.3" font-family="Times,serif" font-size="14.00" fill="#000000">ApplicationController</text>
<polyline fill="none" stroke="#000000" points="561,-349.5 758.9316,-349.5 "/>
<text text-anchor="start" x="569" y="-334.3" font-family="Times,serif" font-size="14.00" fill="#000000">authenticate_admin_user!</text>
<polyline fill="none" stroke="#000000" points="561,-327.5 758.9316,-327.5 "/>
<text text-anchor="start" x="569" y="-312.3" font-family="Times,serif" font-size="14.00" fill="#000000">after_sign_in_path_for</text>
<text text-anchor="start" x="569" y="-298.3" font-family="Times,serif" font-size="14.00" fill="#000000">after_sign_out_path_for</text>
<text text-anchor="start" x="569" y="-284.3" font-family="Times,serif" font-size="14.00" fill="#000000">configure_permitted_parameters</text>
<polyline fill="none" stroke="#000000" points="561,-277.5 758.9316,-277.5 "/>
<text text-anchor="start" x="569" y="-262.3" font-family="Times,serif" font-size="14.00" fill="#000000">_layout</text>
</g>
<!-- HostController -->
<g id="node4" class="node">
<title>HostController</title>
<path fill="none" stroke="#000000" d="M539,-17.5C539,-17.5 614.9932,-17.5 614.9932,-17.5 620.9932,-17.5 626.9932,-23.5 626.9932,-29.5 626.9932,-29.5 626.9932,-97.5 626.9932,-97.5 626.9932,-103.5 620.9932,-109.5 614.9932,-109.5 614.9932,-109.5 539,-109.5 539,-109.5 533,-109.5 527,-103.5 527,-97.5 527,-97.5 527,-29.5 527,-29.5 527,-23.5 533,-17.5 539,-17.5"/>
<text text-anchor="middle" x="576.9966" y="-94.3" font-family="Times,serif" font-size="14.00" fill="#000000">HostController</text>
<polyline fill="none" stroke="#000000" points="527,-87.5 626.9932,-87.5 "/>
<polyline fill="none" stroke="#000000" points="527,-63.5 626.9932,-63.5 "/>
<polyline fill="none" stroke="#000000" points="527,-39.5 626.9932,-39.5 "/>
<text text-anchor="start" x="535" y="-24.3" font-family="Times,serif" font-size="14.00" fill="#000000">_layout</text>
</g>
<!-- GearsController -->
<g id="node5" class="node">
<title>GearsController</title>
<path fill="none" stroke="#000000" d="M148,-527.5C148,-527.5 230.1934,-527.5 230.1934,-527.5 236.1934,-527.5 242.1934,-533.5 242.1934,-539.5 242.1934,-539.5 242.1934,-703.5 242.1934,-703.5 242.1934,-709.5 236.1934,-715.5 230.1934,-715.5 230.1934,-715.5 148,-715.5 148,-715.5 142,-715.5 136,-709.5 136,-703.5 136,-703.5 136,-539.5 136,-539.5 136,-533.5 142,-527.5 148,-527.5"/>
<text text-anchor="middle" x="189.0967" y="-700.3" font-family="Times,serif" font-size="14.00" fill="#000000">GearsController</text>
<polyline fill="none" stroke="#000000" points="136,-693.5 242.1934,-693.5 "/>
<text text-anchor="start" x="144" y="-678.3" font-family="Times,serif" font-size="14.00" fill="#000000">create</text>
<text text-anchor="start" x="144" y="-664.3" font-family="Times,serif" font-size="14.00" fill="#000000">destroy</text>
<text text-anchor="start" x="144" y="-650.3" font-family="Times,serif" font-size="14.00" fill="#000000">edit</text>
<text text-anchor="start" x="144" y="-636.3" font-family="Times,serif" font-size="14.00" fill="#000000">new</text>
<text text-anchor="start" x="144" y="-622.3" font-family="Times,serif" font-size="14.00" fill="#000000">show</text>
<text text-anchor="start" x="144" y="-608.3" font-family="Times,serif" font-size="14.00" fill="#000000">update</text>
<polyline fill="none" stroke="#000000" points="136,-601.5 242.1934,-601.5 "/>
<polyline fill="none" stroke="#000000" points="136,-577.5 242.1934,-577.5 "/>
<text text-anchor="start" x="144" y="-562.3" font-family="Times,serif" font-size="14.00" fill="#000000">_layout</text>
<text text-anchor="start" x="144" y="-548.3" font-family="Times,serif" font-size="14.00" fill="#000000">gear_params</text>
<text text-anchor="start" x="144" y="-534.3" font-family="Times,serif" font-size="14.00" fill="#000000">set_gear</text>
</g>
<!-- ProductsController -->
<g id="node6" class="node">
<title>ProductsController</title>
<path fill="none" stroke="#000000" d="M420,-255.5C420,-255.5 518.5449,-255.5 518.5449,-255.5 524.5449,-255.5 530.5449,-261.5 530.5449,-267.5 530.5449,-267.5 530.5449,-473.5 530.5449,-473.5 530.5449,-479.5 524.5449,-485.5 518.5449,-485.5 518.5449,-485.5 420,-485.5 420,-485.5 414,-485.5 408,-479.5 408,-473.5 408,-473.5 408,-267.5 408,-267.5 408,-261.5 414,-255.5 420,-255.5"/>
<text text-anchor="middle" x="469.2725" y="-470.3" font-family="Times,serif" font-size="14.00" fill="#000000">ProductsController</text>
<polyline fill="none" stroke="#000000" points="408,-463.5 530.5449,-463.5 "/>
<text text-anchor="start" x="416" y="-448.3" font-family="Times,serif" font-size="14.00" fill="#000000">update</text>
<text text-anchor="start" x="416" y="-434.3" font-family="Times,serif" font-size="14.00" fill="#000000">destroy</text>
<text text-anchor="start" x="416" y="-420.3" font-family="Times,serif" font-size="14.00" fill="#000000">edit</text>
<text text-anchor="start" x="416" y="-406.3" font-family="Times,serif" font-size="14.00" fill="#000000">index</text>
<text text-anchor="start" x="416" y="-392.3" font-family="Times,serif" font-size="14.00" fill="#000000">new</text>
<text text-anchor="start" x="416" y="-378.3" font-family="Times,serif" font-size="14.00" fill="#000000">search</text>
<text text-anchor="start" x="416" y="-364.3" font-family="Times,serif" font-size="14.00" fill="#000000">show</text>
<text text-anchor="start" x="416" y="-350.3" font-family="Times,serif" font-size="14.00" fill="#000000">create</text>
<polyline fill="none" stroke="#000000" points="408,-343.5 530.5449,-343.5 "/>
<polyline fill="none" stroke="#000000" points="408,-319.5 530.5449,-319.5 "/>
<text text-anchor="start" x="416" y="-304.3" font-family="Times,serif" font-size="14.00" fill="#000000">_layout</text>
<text text-anchor="start" x="416" y="-290.3" font-family="Times,serif" font-size="14.00" fill="#000000">product_params</text>
<text text-anchor="start" x="416" y="-276.3" font-family="Times,serif" font-size="14.00" fill="#000000">search_params</text>
<text text-anchor="start" x="416" y="-262.3" font-family="Times,serif" font-size="14.00" fill="#000000">set_product</text>
</g>
<!-- UsersController -->
<g id="node7" class="node">
<title>UsersController</title>
<path fill="none" stroke="#000000" d="M284,-493.5C284,-493.5 365.4277,-493.5 365.4277,-493.5 371.4277,-493.5 377.4277,-499.5 377.4277,-505.5 377.4277,-505.5 377.4277,-725.5 377.4277,-725.5 377.4277,-731.5 371.4277,-737.5 365.4277,-737.5 365.4277,-737.5 284,-737.5 284,-737.5 278,-737.5 272,-731.5 272,-725.5 272,-725.5 272,-505.5 272,-505.5 272,-499.5 278,-493.5 284,-493.5"/>
<text text-anchor="middle" x="324.7139" y="-722.3" font-family="Times,serif" font-size="14.00" fill="#000000">UsersController</text>
<polyline fill="none" stroke="#000000" points="272,-715.5 377.4277,-715.5 "/>
<text text-anchor="start" x="280" y="-700.3" font-family="Times,serif" font-size="14.00" fill="#000000">update</text>
<text text-anchor="start" x="280" y="-686.3" font-family="Times,serif" font-size="14.00" fill="#000000">gears</text>
<text text-anchor="start" x="280" y="-672.3" font-family="Times,serif" font-size="14.00" fill="#000000">index</text>
<text text-anchor="start" x="280" y="-658.3" font-family="Times,serif" font-size="14.00" fill="#000000">mypage</text>
<text text-anchor="start" x="280" y="-644.3" font-family="Times,serif" font-size="14.00" fill="#000000">products</text>
<text text-anchor="start" x="280" y="-630.3" font-family="Times,serif" font-size="14.00" fill="#000000">search</text>
<text text-anchor="start" x="280" y="-616.3" font-family="Times,serif" font-size="14.00" fill="#000000">services</text>
<text text-anchor="start" x="280" y="-602.3" font-family="Times,serif" font-size="14.00" fill="#000000">show</text>
<text text-anchor="start" x="280" y="-588.3" font-family="Times,serif" font-size="14.00" fill="#000000">edit</text>
<polyline fill="none" stroke="#000000" points="272,-581.5 377.4277,-581.5 "/>
<polyline fill="none" stroke="#000000" points="272,-557.5 377.4277,-557.5 "/>
<text text-anchor="start" x="280" y="-542.3" font-family="Times,serif" font-size="14.00" fill="#000000">_layout</text>
<text text-anchor="start" x="280" y="-528.3" font-family="Times,serif" font-size="14.00" fill="#000000">search_params</text>
<text text-anchor="start" x="280" y="-514.3" font-family="Times,serif" font-size="14.00" fill="#000000">set_user</text>
<text text-anchor="start" x="280" y="-500.3" font-family="Times,serif" font-size="14.00" fill="#000000">user_params</text>
</g>
<!-- ServicesController -->
<g id="node8" class="node">
<title>ServicesController</title>
<path fill="none" stroke="#000000" d="M522,-527.5C522,-527.5 618.9727,-527.5 618.9727,-527.5 624.9727,-527.5 630.9727,-533.5 630.9727,-539.5 630.9727,-539.5 630.9727,-703.5 630.9727,-703.5 630.9727,-709.5 624.9727,-715.5 618.9727,-715.5 618.9727,-715.5 522,-715.5 522,-715.5 516,-715.5 510,-709.5 510,-703.5 510,-703.5 510,-539.5 510,-539.5 510,-533.5 516,-527.5 522,-527.5"/>
<text text-anchor="middle" x="570.4863" y="-700.3" font-family="Times,serif" font-size="14.00" fill="#000000">ServicesController</text>
<polyline fill="none" stroke="#000000" points="510,-693.5 630.9727,-693.5 "/>
<text text-anchor="start" x="518" y="-678.3" font-family="Times,serif" font-size="14.00" fill="#000000">create</text>
<text text-anchor="start" x="518" y="-664.3" font-family="Times,serif" font-size="14.00" fill="#000000">destroy</text>
<text text-anchor="start" x="518" y="-650.3" font-family="Times,serif" font-size="14.00" fill="#000000">edit</text>
<text text-anchor="start" x="518" y="-636.3" font-family="Times,serif" font-size="14.00" fill="#000000">new</text>
<text text-anchor="start" x="518" y="-622.3" font-family="Times,serif" font-size="14.00" fill="#000000">show</text>
<text text-anchor="start" x="518" y="-608.3" font-family="Times,serif" font-size="14.00" fill="#000000">update</text>
<polyline fill="none" stroke="#000000" points="510,-601.5 630.9727,-601.5 "/>
<polyline fill="none" stroke="#000000" points="510,-577.5 630.9727,-577.5 "/>
<text text-anchor="start" x="518" y="-562.3" font-family="Times,serif" font-size="14.00" fill="#000000">_layout</text>
<text text-anchor="start" x="518" y="-548.3" font-family="Times,serif" font-size="14.00" fill="#000000">service_params</text>
<text text-anchor="start" x="518" y="-534.3" font-family="Times,serif" font-size="14.00" fill="#000000">set_service</text>
</g>
<!-- HomeController -->
<g id="node9" class="node">
<title>HomeController</title>
<path fill="none" stroke="#000000" d="M12,-663.5C12,-663.5 95.7588,-663.5 95.7588,-663.5 101.7588,-663.5 107.7588,-669.5 107.7588,-675.5 107.7588,-675.5 107.7588,-755.5 107.7588,-755.5 107.7588,-761.5 101.7588,-767.5 95.7588,-767.5 95.7588,-767.5 12,-767.5 12,-767.5 6,-767.5 0,-761.5 0,-755.5 0,-755.5 0,-675.5 0,-675.5 0,-669.5 6,-663.5 12,-663.5"/>
<text text-anchor="middle" x="53.8794" y="-752.3" font-family="Times,serif" font-size="14.00" fill="#000000">HomeController</text>
<polyline fill="none" stroke="#000000" points="0,-745.5 107.7588,-745.5 "/>
<text text-anchor="start" x="8" y="-730.3" font-family="Times,serif" font-size="14.00" fill="#000000">about</text>
<text text-anchor="start" x="8" y="-716.3" font-family="Times,serif" font-size="14.00" fill="#000000">index</text>
<polyline fill="none" stroke="#000000" points="0,-709.5 107.7588,-709.5 "/>
<polyline fill="none" stroke="#000000" points="0,-685.5 107.7588,-685.5 "/>
<text text-anchor="start" x="8" y="-670.3" font-family="Times,serif" font-size="14.00" fill="#000000">_layout</text>
</g>
<!-- Users::OmniauthCallbacksController -->
<g id="node10" class="node">
<title>Users::OmniauthCallbacksController</title>
<path fill="none" stroke="#000000" d="M420,-136.5C420,-136.5 620.4072,-136.5 620.4072,-136.5 626.4072,-136.5 632.4072,-142.5 632.4072,-148.5 632.4072,-148.5 632.4072,-216.5 632.4072,-216.5 632.4072,-222.5 626.4072,-228.5 620.4072,-228.5 620.4072,-228.5 420,-228.5 420,-228.5 414,-228.5 408,-222.5 408,-216.5 408,-216.5 408,-148.5 408,-148.5 408,-142.5 414,-136.5 420,-136.5"/>
<text text-anchor="middle" x="520.2036" y="-213.3" font-family="Times,serif" font-size="14.00" fill="#000000">Users::OmniauthCallbacksController</text>
<polyline fill="none" stroke="#000000" points="408,-206.5 632.4072,-206.5 "/>
<polyline fill="none" stroke="#000000" points="408,-182.5 632.4072,-182.5 "/>
<polyline fill="none" stroke="#000000" points="408,-158.5 632.4072,-158.5 "/>
<text text-anchor="start" x="416" y="-143.3" font-family="Times,serif" font-size="14.00" fill="#000000">_layout</text>
</g>
<!-- Users::PasswordsController -->
<g id="node11" class="node">
<title>Users::PasswordsController</title>
<path fill="none" stroke="#000000" d="M63,-272.5C63,-272.5 211.3242,-272.5 211.3242,-272.5 217.3242,-272.5 223.3242,-278.5 223.3242,-284.5 223.3242,-284.5 223.3242,-352.5 223.3242,-352.5 223.3242,-358.5 217.3242,-364.5 211.3242,-364.5 211.3242,-364.5 63,-364.5 63,-364.5 57,-364.5 51,-358.5 51,-352.5 51,-352.5 51,-284.5 51,-284.5 51,-278.5 57,-272.5 63,-272.5"/>
<text text-anchor="middle" x="137.1621" y="-349.3" font-family="Times,serif" font-size="14.00" fill="#000000">Users::PasswordsController</text>
<polyline fill="none" stroke="#000000" points="51,-342.5 223.3242,-342.5 "/>
<polyline fill="none" stroke="#000000" points="51,-318.5 223.3242,-318.5 "/>
<polyline fill="none" stroke="#000000" points="51,-294.5 223.3242,-294.5 "/>
<text text-anchor="start" x="59" y="-279.3" font-family="Times,serif" font-size="14.00" fill="#000000">_layout</text>
</g>
<!-- Users::SessionsController -->
<g id="node12" class="node">
<title>Users::SessionsController</title>
<path fill="none" stroke="#000000" d="M352,-17.5C352,-17.5 489.4414,-17.5 489.4414,-17.5 495.4414,-17.5 501.4414,-23.5 501.4414,-29.5 501.4414,-29.5 501.4414,-97.5 501.4414,-97.5 501.4414,-103.5 495.4414,-109.5 489.4414,-109.5 489.4414,-109.5 352,-109.5 352,-109.5 346,-109.5 340,-103.5 340,-97.5 340,-97.5 340,-29.5 340,-29.5 340,-23.5 346,-17.5 352,-17.5"/>
<text text-anchor="middle" x="420.7207" y="-94.3" font-family="Times,serif" font-size="14.00" fill="#000000">Users::SessionsController</text>
<polyline fill="none" stroke="#000000" points="340,-87.5 501.4414,-87.5 "/>
<polyline fill="none" stroke="#000000" points="340,-63.5 501.4414,-63.5 "/>
<polyline fill="none" stroke="#000000" points="340,-39.5 501.4414,-39.5 "/>
<text text-anchor="start" x="348" y="-24.3" font-family="Times,serif" font-size="14.00" fill="#000000">_layout</text>
</g>
<!-- Users::UnlocksController -->
<g id="node13" class="node">
<title>Users::UnlocksController</title>
<path fill="none" stroke="#000000" d="M675,-527.5C675,-527.5 810.8691,-527.5 810.8691,-527.5 816.8691,-527.5 822.8691,-533.5 822.8691,-539.5 822.8691,-539.5 822.8691,-607.5 822.8691,-607.5 822.8691,-613.5 816.8691,-619.5 810.8691,-619.5 810.8691,-619.5 675,-619.5 675,-619.5 669,-619.5 663,-613.5 663,-607.5 663,-607.5 663,-539.5 663,-539.5 663,-533.5 669,-527.5 675,-527.5"/>
<text text-anchor="middle" x="742.9346" y="-604.3" font-family="Times,serif" font-size="14.00" fill="#000000">Users::UnlocksController</text>
<polyline fill="none" stroke="#000000" points="663,-597.5 822.8691,-597.5 "/>
<polyline fill="none" stroke="#000000" points="663,-573.5 822.8691,-573.5 "/>
<polyline fill="none" stroke="#000000" points="663,-549.5 822.8691,-549.5 "/>
<text text-anchor="start" x="671" y="-534.3" font-family="Times,serif" font-size="14.00" fill="#000000">_layout</text>
</g>
<!-- Users::ConfirmationsController -->
<g id="node14" class="node">
<title>Users::ConfirmationsController</title>
<path fill="none" stroke="#000000" d="M573,-408.5C573,-408.5 742.3242,-408.5 742.3242,-408.5 748.3242,-408.5 754.3242,-414.5 754.3242,-420.5 754.3242,-420.5 754.3242,-488.5 754.3242,-488.5 754.3242,-494.5 748.3242,-500.5 742.3242,-500.5 742.3242,-500.5 573,-500.5 573,-500.5 567,-500.5 561,-494.5 561,-488.5 561,-488.5 561,-420.5 561,-420.5 561,-414.5 567,-408.5 573,-408.5"/>
<text text-anchor="middle" x="657.6621" y="-485.3" font-family="Times,serif" font-size="14.00" fill="#000000">Users::ConfirmationsController</text>
<polyline fill="none" stroke="#000000" points="561,-478.5 754.3242,-478.5 "/>
<polyline fill="none" stroke="#000000" points="561,-454.5 754.3242,-454.5 "/>
<polyline fill="none" stroke="#000000" points="561,-430.5 754.3242,-430.5 "/>
<text text-anchor="start" x="569" y="-415.3" font-family="Times,serif" font-size="14.00" fill="#000000">_layout</text>
</g>
<!-- Users::RegistrationsController -->
<g id="node15" class="node">
<title>Users::RegistrationsController</title>
<path fill="none" stroke="#000000" d="M46,-391.5C46,-391.5 209.0898,-391.5 209.0898,-391.5 215.0898,-391.5 221.0898,-397.5 221.0898,-403.5 221.0898,-403.5 221.0898,-483.5 221.0898,-483.5 221.0898,-489.5 215.0898,-495.5 209.0898,-495.5 209.0898,-495.5 46,-495.5 46,-495.5 40,-495.5 34,-489.5 34,-483.5 34,-483.5 34,-403.5 34,-403.5 34,-397.5 40,-391.5 46,-391.5"/>
<text text-anchor="middle" x="127.5449" y="-480.3" font-family="Times,serif" font-size="14.00" fill="#000000">Users::RegistrationsController</text>
<polyline fill="none" stroke="#000000" points="34,-473.5 221.0898,-473.5 "/>
<polyline fill="none" stroke="#000000" points="34,-449.5 221.0898,-449.5 "/>
<text text-anchor="start" x="42" y="-434.3" font-family="Times,serif" font-size="14.00" fill="#000000">after_sign_up_path_for</text>
<text text-anchor="start" x="42" y="-420.3" font-family="Times,serif" font-size="14.00" fill="#000000">after_update_path_for</text>
<polyline fill="none" stroke="#000000" points="34,-413.5 221.0898,-413.5 "/>
<text text-anchor="start" x="42" y="-398.3" font-family="Times,serif" font-size="14.00" fill="#000000">_layout</text>
</g>
<!-- PortfoliosController -->
<g id="node16" class="node">
<title>PortfoliosController</title>
<path fill="none" stroke="#000000" d="M675,-.5C675,-.5 779.7725,-.5 779.7725,-.5 785.7725,-.5 791.7725,-6.5 791.7725,-12.5 791.7725,-12.5 791.7725,-148.5 791.7725,-148.5 791.7725,-154.5 785.7725,-160.5 779.7725,-160.5 779.7725,-160.5 675,-160.5 675,-160.5 669,-160.5 663,-154.5 663,-148.5 663,-148.5 663,-12.5 663,-12.5 663,-6.5 669,-.5 675,-.5"/>
<text text-anchor="middle" x="727.3862" y="-145.3" font-family="Times,serif" font-size="14.00" fill="#000000">PortfoliosController</text>
<polyline fill="none" stroke="#000000" points="663,-138.5 791.7725,-138.5 "/>
<text text-anchor="start" x="671" y="-123.3" font-family="Times,serif" font-size="14.00" fill="#000000">create</text>
<text text-anchor="start" x="671" y="-109.3" font-family="Times,serif" font-size="14.00" fill="#000000">edit</text>
<text text-anchor="start" x="671" y="-95.3" font-family="Times,serif" font-size="14.00" fill="#000000">new</text>
<text text-anchor="start" x="671" y="-81.3" font-family="Times,serif" font-size="14.00" fill="#000000">update</text>
<polyline fill="none" stroke="#000000" points="663,-74.5 791.7725,-74.5 "/>
<polyline fill="none" stroke="#000000" points="663,-50.5 791.7725,-50.5 "/>
<text text-anchor="start" x="671" y="-35.3" font-family="Times,serif" font-size="14.00" fill="#000000">_layout</text>
<text text-anchor="start" x="671" y="-21.3" font-family="Times,serif" font-size="14.00" fill="#000000">portfolio_params</text>
<text text-anchor="start" x="671" y="-7.3" font-family="Times,serif" font-size="14.00" fill="#000000">set_portfolio</text>
</g>
</g>
</svg>
