<?xml version="1.0" encoding="UTF-8" standalone="no"?>
<!DOCTYPE svg PUBLIC "-//W3C//DTD SVG 1.1//EN"
 "http://www.w3.org/Graphics/SVG/1.1/DTD/svg11.dtd">
<!-- Generated by graphviz version 2.40.1 (20161225.0304)
 -->
<!-- Title: models_diagram Pages: 1 -->
<svg width="1656pt" height="540pt"
 viewBox="0.00 0.00 1656.42 540.00" xmlns="http://www.w3.org/2000/svg" xmlns:xlink="http://www.w3.org/1999/xlink">
<g id="graph0" class="graph" transform="scale(1 1) rotate(0) translate(4 536)">
<title>models_diagram</title>
<polygon fill="transparent" stroke="transparent" points="-4,4 -4,-536 1652.4202,-536 1652.4202,4 -4,4"/>
<!-- _diagram_info -->
<g id="node1" class="node">
<title>_diagram_info</title>
<text text-anchor="start" x="319.3367" y="-412.6" font-family="Times,serif" font-size="13.00" fill="#000000">Models diagram</text>
<text text-anchor="start" x="319.3367" y="-399.6" font-family="Times,serif" font-size="13.00" fill="#000000">Date: Sep 22 2019 &#45; 20:38</text>
<text text-anchor="start" x="319.3367" y="-386.6" font-family="Times,serif" font-size="13.00" fill="#000000">Migration version: 20190830102751</text>
<text text-anchor="start" x="319.3367" y="-373.6" font-family="Times,serif" font-size="13.00" fill="#000000">Generated by RailRoady 1.5.3</text>
<text text-anchor="start" x="319.3367" y="-360.6" font-family="Times,serif" font-size="13.00" fill="#000000">http://railroady.prestonlee.com</text>
</g>
<!-- Portfolio -->
<g id="node2" class="node">
<title>Portfolio</title>
<path fill="none" stroke="#000000" d="M12,-28.5C12,-28.5 252.0488,-28.5 252.0488,-28.5 258.0488,-28.5 264.0488,-34.5 264.0488,-40.5 264.0488,-40.5 264.0488,-172.5 264.0488,-172.5 264.0488,-178.5 258.0488,-184.5 252.0488,-184.5 252.0488,-184.5 12,-184.5 12,-184.5 6,-184.5 0,-178.5 0,-172.5 0,-172.5 0,-40.5 0,-40.5 0,-34.5 6,-28.5 12,-28.5"/>
<text text-anchor="middle" x="132.0244" y="-169.3" font-family="Times,serif" font-size="14.00" fill="#000000">Portfolio</text>
<polyline fill="none" stroke="#000000" points="0,-162.5 264.0488,-162.5 "/>
<text text-anchor="start" x="8" y="-147.3" font-family="Times,serif" font-size="14.00" fill="#000000">updated_at :timestamp(6) without time zone</text>
<text text-anchor="start" x="8" y="-133.3" font-family="Times,serif" font-size="14.00" fill="#000000">portfolio01 :character varying</text>
<text text-anchor="start" x="8" y="-119.3" font-family="Times,serif" font-size="14.00" fill="#000000">portfolio02 :character varying</text>
<text text-anchor="start" x="8" y="-105.3" font-family="Times,serif" font-size="14.00" fill="#000000">portfolio03 :character varying</text>
<text text-anchor="start" x="8" y="-91.3" font-family="Times,serif" font-size="14.00" fill="#000000">portfolio04 :character varying</text>
<text text-anchor="start" x="8" y="-77.3" font-family="Times,serif" font-size="14.00" fill="#000000">portfolio05 :character varying</text>
<text text-anchor="start" x="8" y="-63.3" font-family="Times,serif" font-size="14.00" fill="#000000">user_id :bigint</text>
<text text-anchor="start" x="8" y="-49.3" font-family="Times,serif" font-size="14.00" fill="#000000">created_at :timestamp(6) without time zone</text>
<text text-anchor="start" x="8" y="-35.3" font-family="Times,serif" font-size="14.00" fill="#000000">id :bigint</text>
</g>
<!-- Product -->
<g id="node3" class="node">
<title>Product</title>
<path fill="none" stroke="#000000" d="M294,-21.5C294,-21.5 534.0488,-21.5 534.0488,-21.5 540.0488,-21.5 546.0488,-27.5 546.0488,-33.5 546.0488,-33.5 546.0488,-179.5 546.0488,-179.5 546.0488,-185.5 540.0488,-191.5 534.0488,-191.5 534.0488,-191.5 294,-191.5 294,-191.5 288,-191.5 282,-185.5 282,-179.5 282,-179.5 282,-33.5 282,-33.5 282,-27.5 288,-21.5 294,-21.5"/>
<text text-anchor="middle" x="414.0244" y="-176.3" font-family="Times,serif" font-size="14.00" fill="#000000">Product</text>
<polyline fill="none" stroke="#000000" points="282,-169.5 546.0488,-169.5 "/>
<text text-anchor="start" x="290" y="-154.3" font-family="Times,serif" font-size="14.00" fill="#000000">updated_at :timestamp(6) without time zone</text>
<text text-anchor="start" x="290" y="-140.3" font-family="Times,serif" font-size="14.00" fill="#000000">song_title :character varying</text>
<text text-anchor="start" x="290" y="-126.3" font-family="Times,serif" font-size="14.00" fill="#000000">title :character varying</text>
<text text-anchor="start" x="290" y="-112.3" font-family="Times,serif" font-size="14.00" fill="#000000">instrument :character varying</text>
<text text-anchor="start" x="290" y="-98.3" font-family="Times,serif" font-size="14.00" fill="#000000">content :text</text>
<text text-anchor="start" x="290" y="-84.3" font-family="Times,serif" font-size="14.00" fill="#000000">video :character varying</text>
<text text-anchor="start" x="290" y="-70.3" font-family="Times,serif" font-size="14.00" fill="#000000">video_explanation :text</text>
<text text-anchor="start" x="290" y="-56.3" font-family="Times,serif" font-size="14.00" fill="#000000">user_id :bigint</text>
<text text-anchor="start" x="290" y="-42.3" font-family="Times,serif" font-size="14.00" fill="#000000">created_at :timestamp(6) without time zone</text>
<text text-anchor="start" x="290" y="-28.3" font-family="Times,serif" font-size="14.00" fill="#000000">id :bigint</text>
</g>
<!-- Request -->
<g id="node4" class="node">
<title>Request</title>
<path fill="none" stroke="#000000" d="M576,-.5C576,-.5 816.0488,-.5 816.0488,-.5 822.0488,-.5 828.0488,-6.5 828.0488,-12.5 828.0488,-12.5 828.0488,-200.5 828.0488,-200.5 828.0488,-206.5 822.0488,-212.5 816.0488,-212.5 816.0488,-212.5 576,-212.5 576,-212.5 570,-212.5 564,-206.5 564,-200.5 564,-200.5 564,-12.5 564,-12.5 564,-6.5 570,-.5 576,-.5"/>
<text text-anchor="middle" x="696.0244" y="-197.3" font-family="Times,serif" font-size="14.00" fill="#000000">Request</text>
<polyline fill="none" stroke="#000000" points="564,-190.5 828.0488,-190.5 "/>
<text text-anchor="start" x="572" y="-175.3" font-family="Times,serif" font-size="14.00" fill="#000000">updated_at :timestamp(6) without time zone</text>
<text text-anchor="start" x="572" y="-161.3" font-family="Times,serif" font-size="14.00" fill="#000000">title :character varying</text>
<text text-anchor="start" x="572" y="-147.3" font-family="Times,serif" font-size="14.00" fill="#000000">content :text</text>
<text text-anchor="start" x="572" y="-133.3" font-family="Times,serif" font-size="14.00" fill="#000000">image01 :character varying</text>
<text text-anchor="start" x="572" y="-119.3" font-family="Times,serif" font-size="14.00" fill="#000000">image02 :character varying</text>
<text text-anchor="start" x="572" y="-105.3" font-family="Times,serif" font-size="14.00" fill="#000000">video01 :character varying</text>
<text text-anchor="start" x="572" y="-91.3" font-family="Times,serif" font-size="14.00" fill="#000000">proposal_deadline :character varying</text>
<text text-anchor="start" x="572" y="-77.3" font-family="Times,serif" font-size="14.00" fill="#000000">budget_estimate :character varying</text>
<text text-anchor="start" x="572" y="-63.3" font-family="Times,serif" font-size="14.00" fill="#000000">skype_id :character varying</text>
<text text-anchor="start" x="572" y="-49.3" font-family="Times,serif" font-size="14.00" fill="#000000">host_id :integer</text>
<text text-anchor="start" x="572" y="-35.3" font-family="Times,serif" font-size="14.00" fill="#000000">user_id :bigint</text>
<text text-anchor="start" x="572" y="-21.3" font-family="Times,serif" font-size="14.00" fill="#000000">created_at :timestamp(6) without time zone</text>
<text text-anchor="start" x="572" y="-7.3" font-family="Times,serif" font-size="14.00" fill="#000000">id :bigint</text>
</g>
<!-- Gear -->
<g id="node5" class="node">
<title>Gear</title>
<path fill="none" stroke="#000000" d="M858,-49.5C858,-49.5 1098.0488,-49.5 1098.0488,-49.5 1104.0488,-49.5 1110.0488,-55.5 1110.0488,-61.5 1110.0488,-61.5 1110.0488,-151.5 1110.0488,-151.5 1110.0488,-157.5 1104.0488,-163.5 1098.0488,-163.5 1098.0488,-163.5 858,-163.5 858,-163.5 852,-163.5 846,-157.5 846,-151.5 846,-151.5 846,-61.5 846,-61.5 846,-55.5 852,-49.5 858,-49.5"/>
<text text-anchor="middle" x="978.0244" y="-148.3" font-family="Times,serif" font-size="14.00" fill="#000000">Gear</text>
<polyline fill="none" stroke="#000000" points="846,-141.5 1110.0488,-141.5 "/>
<text text-anchor="start" x="854" y="-126.3" font-family="Times,serif" font-size="14.00" fill="#000000">id :bigint</text>
<text text-anchor="start" x="854" y="-112.3" font-family="Times,serif" font-size="14.00" fill="#000000">name :character varying</text>
<text text-anchor="start" x="854" y="-98.3" font-family="Times,serif" font-size="14.00" fill="#000000">image_data :text</text>
<text text-anchor="start" x="854" y="-84.3" font-family="Times,serif" font-size="14.00" fill="#000000">user_id :bigint</text>
<text text-anchor="start" x="854" y="-70.3" font-family="Times,serif" font-size="14.00" fill="#000000">created_at :timestamp(6) without time zone</text>
<text text-anchor="start" x="854" y="-56.3" font-family="Times,serif" font-size="14.00" fill="#000000">updated_at :timestamp(6) without time zone</text>
</g>
<!-- Host -->
<g id="node6" class="node">
<title>Host</title>
<path fill="none" stroke="#000000" d="M886,-347.5C886,-347.5 1126.0488,-347.5 1126.0488,-347.5 1132.0488,-347.5 1138.0488,-353.5 1138.0488,-359.5 1138.0488,-359.5 1138.0488,-421.5 1138.0488,-421.5 1138.0488,-427.5 1132.0488,-433.5 1126.0488,-433.5 1126.0488,-433.5 886,-433.5 886,-433.5 880,-433.5 874,-427.5 874,-421.5 874,-421.5 874,-359.5 874,-359.5 874,-353.5 880,-347.5 886,-347.5"/>
<text text-anchor="middle" x="1006.0244" y="-418.3" font-family="Times,serif" font-size="14.00" fill="#000000">Host</text>
<polyline fill="none" stroke="#000000" points="874,-411.5 1138.0488,-411.5 "/>
<text text-anchor="start" x="882" y="-396.3" font-family="Times,serif" font-size="14.00" fill="#000000">id :bigint</text>
<text text-anchor="start" x="882" y="-382.3" font-family="Times,serif" font-size="14.00" fill="#000000">user_id :integer</text>
<text text-anchor="start" x="882" y="-368.3" font-family="Times,serif" font-size="14.00" fill="#000000">created_at :timestamp(6) without time zone</text>
<text text-anchor="start" x="882" y="-354.3" font-family="Times,serif" font-size="14.00" fill="#000000">updated_at :timestamp(6) without time zone</text>
</g>
<!-- AdminUser -->
<g id="node7" class="node">
<title>AdminUser</title>
<path fill="none" stroke="#000000" d="M1168.3896,-319.5C1168.3896,-319.5 1463.6592,-319.5 1463.6592,-319.5 1469.6592,-319.5 1475.6592,-325.5 1475.6592,-331.5 1475.6592,-331.5 1475.6592,-449.5 1475.6592,-449.5 1475.6592,-455.5 1469.6592,-461.5 1463.6592,-461.5 1463.6592,-461.5 1168.3896,-461.5 1168.3896,-461.5 1162.3896,-461.5 1156.3896,-455.5 1156.3896,-449.5 1156.3896,-449.5 1156.3896,-331.5 1156.3896,-331.5 1156.3896,-325.5 1162.3896,-319.5 1168.3896,-319.5"/>
<text text-anchor="middle" x="1316.0244" y="-446.3" font-family="Times,serif" font-size="14.00" fill="#000000">AdminUser</text>
<polyline fill="none" stroke="#000000" points="1156.3896,-439.5 1475.6592,-439.5 "/>
<text text-anchor="start" x="1164.3896" y="-424.3" font-family="Times,serif" font-size="14.00" fill="#000000">updated_at :timestamp(6) without time zone</text>
<text text-anchor="start" x="1164.3896" y="-410.3" font-family="Times,serif" font-size="14.00" fill="#000000">email :character varying</text>
<text text-anchor="start" x="1164.3896" y="-396.3" font-family="Times,serif" font-size="14.00" fill="#000000">encrypted_password :character varying</text>
<text text-anchor="start" x="1164.3896" y="-382.3" font-family="Times,serif" font-size="14.00" fill="#000000">reset_password_token :character varying</text>
<text text-anchor="start" x="1164.3896" y="-368.3" font-family="Times,serif" font-size="14.00" fill="#000000">reset_password_sent_at :timestamp without time zone</text>
<text text-anchor="start" x="1164.3896" y="-354.3" font-family="Times,serif" font-size="14.00" fill="#000000">remember_created_at :timestamp without time zone</text>
<text text-anchor="start" x="1164.3896" y="-340.3" font-family="Times,serif" font-size="14.00" fill="#000000">created_at :timestamp(6) without time zone</text>
<text text-anchor="start" x="1164.3896" y="-326.3" font-family="Times,serif" font-size="14.00" fill="#000000">id :bigint</text>
</g>
<!-- ApplicationRecord -->
<g id="node8" class="node">
<title>ApplicationRecord</title>
<ellipse fill="none" stroke="#000000" cx="1571.0244" cy="-390.5" rx="77.2916" ry="18"/>
<text text-anchor="middle" x="1571.0244" y="-386.3" font-family="Times,serif" font-size="14.00" fill="#000000">ApplicationRecord</text>
</g>
<!-- Service -->
<g id="node9" class="node">
<title>Service</title>
<path fill="none" stroke="#000000" d="M1140,-42.5C1140,-42.5 1380.0488,-42.5 1380.0488,-42.5 1386.0488,-42.5 1392.0488,-48.5 1392.0488,-54.5 1392.0488,-54.5 1392.0488,-158.5 1392.0488,-158.5 1392.0488,-164.5 1386.0488,-170.5 1380.0488,-170.5 1380.0488,-170.5 1140,-170.5 1140,-170.5 1134,-170.5 1128,-164.5 1128,-158.5 1128,-158.5 1128,-54.5 1128,-54.5 1128,-48.5 1134,-42.5 1140,-42.5"/>
<text text-anchor="middle" x="1260.0244" y="-155.3" font-family="Times,serif" font-size="14.00" fill="#000000">Service</text>
<polyline fill="none" stroke="#000000" points="1128,-148.5 1392.0488,-148.5 "/>
<text text-anchor="start" x="1136" y="-133.3" font-family="Times,serif" font-size="14.00" fill="#000000">id :bigint</text>
<text text-anchor="start" x="1136" y="-119.3" font-family="Times,serif" font-size="14.00" fill="#000000">title :character varying</text>
<text text-anchor="start" x="1136" y="-105.3" font-family="Times,serif" font-size="14.00" fill="#000000">content :text</text>
<text text-anchor="start" x="1136" y="-91.3" font-family="Times,serif" font-size="14.00" fill="#000000">service_category :character varying</text>
<text text-anchor="start" x="1136" y="-77.3" font-family="Times,serif" font-size="14.00" fill="#000000">user_id :bigint</text>
<text text-anchor="start" x="1136" y="-63.3" font-family="Times,serif" font-size="14.00" fill="#000000">created_at :timestamp(6) without time zone</text>
<text text-anchor="start" x="1136" y="-49.3" font-family="Times,serif" font-size="14.00" fill="#000000">updated_at :timestamp(6) without time zone</text>
</g>
<!-- User -->
<g id="node10" class="node">
<title>User</title>
<path fill="none" stroke="#000000" d="M548.3896,-249.5C548.3896,-249.5 843.6592,-249.5 843.6592,-249.5 849.6592,-249.5 855.6592,-255.5 855.6592,-261.5 855.6592,-261.5 855.6592,-519.5 855.6592,-519.5 855.6592,-525.5 849.6592,-531.5 843.6592,-531.5 843.6592,-531.5 548.3896,-531.5 548.3896,-531.5 542.3896,-531.5 536.3896,-525.5 536.3896,-519.5 536.3896,-519.5 536.3896,-261.5 536.3896,-261.5 536.3896,-255.5 542.3896,-249.5 548.3896,-249.5"/>
<text text-anchor="middle" x="696.0244" y="-516.3" font-family="Times,serif" font-size="14.00" fill="#000000">User</text>
<polyline fill="none" stroke="#000000" points="536.3896,-509.5 855.6592,-509.5 "/>
<text text-anchor="start" x="544.3896" y="-494.3" font-family="Times,serif" font-size="14.00" fill="#000000">updated_at :timestamp(6) without time zone</text>
<text text-anchor="start" x="544.3896" y="-480.3" font-family="Times,serif" font-size="14.00" fill="#000000">name :character varying</text>
<text text-anchor="start" x="544.3896" y="-466.3" font-family="Times,serif" font-size="14.00" fill="#000000">instrument :character varying</text>
<text text-anchor="start" x="544.3896" y="-452.3" font-family="Times,serif" font-size="14.00" fill="#000000">has_been :character varying</text>
<text text-anchor="start" x="544.3896" y="-438.3" font-family="Times,serif" font-size="14.00" fill="#000000">sex :character varying</text>
<text text-anchor="start" x="544.3896" y="-424.3" font-family="Times,serif" font-size="14.00" fill="#000000">profile :text</text>
<text text-anchor="start" x="544.3896" y="-410.3" font-family="Times,serif" font-size="14.00" fill="#000000">profile_text :text</text>
<text text-anchor="start" x="544.3896" y="-396.3" font-family="Times,serif" font-size="14.00" fill="#000000">additional_explanation :character varying</text>
<text text-anchor="start" x="544.3896" y="-382.3" font-family="Times,serif" font-size="14.00" fill="#000000">avatar_image_data :text</text>
<text text-anchor="start" x="544.3896" y="-368.3" font-family="Times,serif" font-size="14.00" fill="#000000">video :text</text>
<text text-anchor="start" x="544.3896" y="-354.3" font-family="Times,serif" font-size="14.00" fill="#000000">video_explanation :text</text>
<text text-anchor="start" x="544.3896" y="-340.3" font-family="Times,serif" font-size="14.00" fill="#000000">email :character varying</text>
<text text-anchor="start" x="544.3896" y="-326.3" font-family="Times,serif" font-size="14.00" fill="#000000">encrypted_password :character varying</text>
<text text-anchor="start" x="544.3896" y="-312.3" font-family="Times,serif" font-size="14.00" fill="#000000">reset_password_token :character varying</text>
<text text-anchor="start" x="544.3896" y="-298.3" font-family="Times,serif" font-size="14.00" fill="#000000">reset_password_sent_at :timestamp without time zone</text>
<text text-anchor="start" x="544.3896" y="-284.3" font-family="Times,serif" font-size="14.00" fill="#000000">remember_created_at :timestamp without time zone</text>
<text text-anchor="start" x="544.3896" y="-270.3" font-family="Times,serif" font-size="14.00" fill="#000000">created_at :timestamp(6) without time zone</text>
<text text-anchor="start" x="544.3896" y="-256.3" font-family="Times,serif" font-size="14.00" fill="#000000">id :bigint</text>
</g>
<!-- User&#45;&gt;Portfolio -->
<g id="edge2" class="edge">
<title>User&#45;&gt;Portfolio</title>
<path fill="none" stroke="#be846d" d="M529.0685,-249.4694C528.7206,-249.312 528.3726,-249.1555 528.0244,-249 423.5203,-202.3167 378.7307,-256.8933 273.0244,-213 257.9289,-206.7318 243.0091,-198.4594 228.846,-189.2886"/>
<ellipse fill="none" stroke="#be846d" cx="532.7318" cy="-251.2003" rx="4" ry="4"/>
<ellipse fill="#be846d" stroke="#be846d" cx="225.2899" cy="-186.9301" rx="4" ry="4"/>
</g>
<!-- User&#45;&gt;Product -->
<g id="edge5" class="edge">
<title>User&#45;&gt;Product</title>
<path fill="none" stroke="#713bd6" d="M549.913,-243.3523C535.0097,-228.3433 520.1826,-213.4111 506.099,-199.2276"/>
<ellipse fill="none" stroke="#713bd6" cx="553.0322" cy="-246.4936" rx="4" ry="4"/>
<polygon fill="#713bd6" stroke="#713bd6" points="505.8515,-198.9784 501.9987,-188.7116 502.3285,-195.4303 498.8054,-191.8823 498.8054,-191.8823 498.8054,-191.8823 502.3285,-195.4303 495.6122,-195.053 505.8515,-198.9784 505.8515,-198.9784"/>
</g>
<!-- User&#45;&gt;Request -->
<g id="edge3" class="edge">
<title>User&#45;&gt;Request</title>
<path fill="none" stroke="#10d202" d="M696.0244,-241.2039C696.0244,-235.0102 696.0244,-228.835 696.0244,-222.7256"/>
<ellipse fill="none" stroke="#10d202" cx="696.0245" cy="-245.332" rx="4" ry="4"/>
<polygon fill="#10d202" stroke="#10d202" points="696.0245,-222.5145 700.5244,-212.5145 696.0245,-217.5145 696.0244,-212.5145 696.0244,-212.5145 696.0244,-212.5145 696.0245,-217.5145 691.5244,-212.5146 696.0245,-222.5145 696.0245,-222.5145"/>
</g>
<!-- User&#45;&gt;Gear -->
<g id="edge4" class="edge">
<title>User&#45;&gt;Gear</title>
<path fill="none" stroke="#0790df" d="M841.8477,-243.6425C867.2166,-218.0937 892.3771,-192.7548 914.0391,-170.9392"/>
<ellipse fill="none" stroke="#0790df" cx="839.0167" cy="-246.4936" rx="4" ry="4"/>
<polygon fill="#0790df" stroke="#0790df" points="914.2004,-170.7767 924.4396,-166.8514 917.7234,-167.2287 921.2464,-163.6807 921.2464,-163.6807 921.2464,-163.6807 917.7234,-167.2287 918.0532,-160.5099 914.2004,-170.7767 914.2004,-170.7767"/>
</g>
<!-- User&#45;&gt;Service -->
<g id="edge1" class="edge">
<title>User&#45;&gt;Service</title>
<path fill="none" stroke="#b93c3d" d="M863.3051,-249.7737C863.8778,-249.5133 864.4509,-249.2554 865.0244,-249 969.1819,-202.6199 1013.7364,-256.7532 1119.0244,-213 1140.8374,-203.9354 1162.2848,-190.6888 1181.6129,-176.5959"/>
<ellipse fill="none" stroke="#b93c3d" cx="859.4992" cy="-251.5806" rx="4" ry="4"/>
<polygon fill="#b93c3d" stroke="#b93c3d" points="1181.7476,-176.4954 1192.4532,-174.1203 1185.7546,-173.5047 1189.7616,-170.514 1189.7616,-170.514 1189.7616,-170.514 1185.7546,-173.5047 1187.07,-166.9077 1181.7476,-176.4954 1181.7476,-176.4954"/>
</g>
</g>
</svg>
