<?xml version="1.0" encoding="UTF-8" standalone="no"?>
<!DOCTYPE svg PUBLIC "-//W3C//DTD SVG 1.1//EN"
 "http://www.w3.org/Graphics/SVG/1.1/DTD/svg11.dtd">
<!-- Generated by graphviz version 2.40.1 (20161225.0304)
 -->
<!-- Title: models_diagram Pages: 1 -->
<svg width="653pt" height="153pt"
 viewBox="0.00 0.00 653.08 153.00" xmlns="http://www.w3.org/2000/svg" xmlns:xlink="http://www.w3.org/1999/xlink">
<g id="graph0" class="graph" transform="scale(1 1) rotate(0) translate(4 149)">
<title>models_diagram</title>
<polygon fill="transparent" stroke="transparent" points="-4,4 -4,-149 649.0835,-149 649.0835,4 -4,4"/>
<!-- _diagram_info -->
<g id="node1" class="node">
<title>_diagram_info</title>
<text text-anchor="start" x="8" y="-130.6" font-family="Times,serif" font-size="13.00" fill="#000000">Models diagram</text>
<text text-anchor="start" x="8" y="-117.6" font-family="Times,serif" font-size="13.00" fill="#000000">Date: Sep 22 2019 &#45; 20:38</text>
<text text-anchor="start" x="8" y="-104.6" font-family="Times,serif" font-size="13.00" fill="#000000">Migration version: 20190830102751</text>
<text text-anchor="start" x="8" y="-91.6" font-family="Times,serif" font-size="13.00" fill="#000000">Generated by RailRoady 1.5.3</text>
<text text-anchor="start" x="8" y="-78.6" font-family="Times,serif" font-size="13.00" fill="#000000">http://railroady.prestonlee.com</text>
</g>
<!-- Portfolio -->
<g id="node2" class="node">
<title>Portfolio</title>
<ellipse fill="none" stroke="#000000" cx="61.6877" cy="-18" rx="41.6025" ry="18"/>
<text text-anchor="middle" x="61.6877" y="-13.8" font-family="Times,serif" font-size="14.00" fill="#000000">Portfolio</text>
</g>
<!-- Product -->
<g id="node3" class="node">
<title>Product</title>
<ellipse fill="none" stroke="#000000" cx="158.6877" cy="-18" rx="37.7352" ry="18"/>
<text text-anchor="middle" x="158.6877" y="-13.8" font-family="Times,serif" font-size="14.00" fill="#000000">Product</text>
</g>
<!-- Request -->
<g id="node4" class="node">
<title>Request</title>
<ellipse fill="none" stroke="#000000" cx="252.6877" cy="-18" rx="38.6955" ry="18"/>
<text text-anchor="middle" x="252.6877" y="-13.8" font-family="Times,serif" font-size="14.00" fill="#000000">Request</text>
</g>
<!-- Gear -->
<g id="node5" class="node">
<title>Gear</title>
<ellipse fill="none" stroke="#000000" cx="336.6877" cy="-18" rx="27.0787" ry="18"/>
<text text-anchor="middle" x="336.6877" y="-13.8" font-family="Times,serif" font-size="14.00" fill="#000000">Gear</text>
</g>
<!-- Host -->
<g id="node6" class="node">
<title>Host</title>
<ellipse fill="none" stroke="#000000" cx="324.6877" cy="-108.5" rx="27" ry="18"/>
<text text-anchor="middle" x="324.6877" y="-104.3" font-family="Times,serif" font-size="14.00" fill="#000000">Host</text>
</g>
<!-- AdminUser -->
<g id="node7" class="node">
<title>AdminUser</title>
<ellipse fill="none" stroke="#000000" cx="420.6877" cy="-108.5" rx="51.2415" ry="18"/>
<text text-anchor="middle" x="420.6877" y="-104.3" font-family="Times,serif" font-size="14.00" fill="#000000">AdminUser</text>
</g>
<!-- ApplicationRecord -->
<g id="node8" class="node">
<title>ApplicationRecord</title>
<ellipse fill="none" stroke="#000000" cx="567.6877" cy="-108.5" rx="77.2916" ry="18"/>
<text text-anchor="middle" x="567.6877" y="-104.3" font-family="Times,serif" font-size="14.00" fill="#000000">ApplicationRecord</text>
</g>
<!-- Service -->
<g id="node9" class="node">
<title>Service</title>
<ellipse fill="none" stroke="#000000" cx="418.6877" cy="-18" rx="36.7489" ry="18"/>
<text text-anchor="middle" x="418.6877" y="-13.8" font-family="Times,serif" font-size="14.00" fill="#000000">Service</text>
</g>
<!-- User -->
<g id="node10" class="node">
<title>User</title>
<ellipse fill="none" stroke="#000000" cx="252.6877" cy="-108.5" rx="27" ry="18"/>
<text text-anchor="middle" x="252.6877" y="-104.3" font-family="Times,serif" font-size="14.00" fill="#000000">User</text>
</g>
<!-- User&#45;&gt;Portfolio -->
<g id="edge2" class="edge">
<title>User&#45;&gt;Portfolio</title>
<path fill="none" stroke="#17761e" d="M233.9535,-86.2078C228.7713,-81.018 222.8616,-75.8818 216.6877,-72 174.9238,-45.7407 158.231,-52.3556 111.6877,-36 108.3162,-34.8152 104.8203,-33.5769 101.3148,-32.3284"/>
<ellipse fill="none" stroke="#17761e" cx="236.9254" cy="-89.3478" rx="4" ry="4"/>
<ellipse fill="#17761e" stroke="#17761e" cx="97.4365" cy="-30.942" rx="4" ry="4"/>
</g>
<!-- User&#45;&gt;Product -->
<g id="edge5" class="edge">
<title>User&#45;&gt;Product</title>
<path fill="none" stroke="#ed932a" d="M232.1009,-87.3213C227.098,-82.2599 221.7347,-76.9037 216.6877,-72 206.0725,-61.6861 194.1366,-50.5047 183.8645,-41.0062"/>
<ellipse fill="none" stroke="#ed932a" cx="234.9628" cy="-90.2311" rx="4" ry="4"/>
<polygon fill="#ed932a" stroke="#ed932a" points="183.7374,-40.8891 179.4325,-30.8035 180.0603,-37.501 176.3832,-34.1129 176.3832,-34.1129 176.3832,-34.1129 180.0603,-37.501 173.3339,-37.4223 183.7374,-40.8891 183.7374,-40.8891"/>
</g>
<!-- User&#45;&gt;Request -->
<g id="edge3" class="edge">
<title>User&#45;&gt;Request</title>
<path fill="none" stroke="#b7915d" d="M252.6877,-81.9687C252.6877,-70.8402 252.6877,-57.878 252.6877,-46.5429"/>
<ellipse fill="none" stroke="#b7915d" cx="252.6878" cy="-86.186" rx="4" ry="4"/>
<polygon fill="#b7915d" stroke="#b7915d" points="252.6878,-46.2868 257.1877,-36.2867 252.6878,-41.2868 252.6877,-36.2868 252.6877,-36.2868 252.6877,-36.2868 252.6878,-41.2868 248.1877,-36.2868 252.6878,-46.2868 252.6878,-46.2868"/>
</g>
<!-- User&#45;&gt;Gear -->
<g id="edge4" class="edge">
<title>User&#45;&gt;Gear</title>
<path fill="none" stroke="#3b22a7" d="M272.7119,-86.9263C285.6149,-73.0249 302.3701,-54.9731 315.4967,-40.8308"/>
<ellipse fill="none" stroke="#3b22a7" cx="269.6584" cy="-90.2161" rx="4" ry="4"/>
<polygon fill="#3b22a7" stroke="#3b22a7" points="315.5654,-40.7568 325.6666,-36.4887 318.9669,-37.0921 322.3684,-33.4274 322.3684,-33.4274 322.3684,-33.4274 318.9669,-37.0921 319.0702,-30.3661 315.5654,-40.7568 315.5654,-40.7568"/>
</g>
<!-- User&#45;&gt;Service -->
<g id="edge1" class="edge">
<title>User&#45;&gt;Service</title>
<path fill="none" stroke="#b25f3f" d="M271.597,-86.4765C276.7757,-81.2814 282.6401,-76.0756 288.6877,-72 296.7461,-66.5694 344.9696,-47.0435 380.3404,-33.0325"/>
<ellipse fill="none" stroke="#b25f3f" cx="268.6202" cy="-89.6042" rx="4" ry="4"/>
<polygon fill="#b25f3f" stroke="#b25f3f" points="380.6314,-32.9176 391.5854,-33.4284 385.2817,-31.0804 389.9319,-29.2432 389.9319,-29.2432 389.9319,-29.2432 385.2817,-31.0804 388.2785,-25.058 380.6314,-32.9176 380.6314,-32.9176"/>
</g>
</g>
</svg>
